<?xml version="1.0" encoding="utf-8"?>
<!-- Generator: Adobe Illustrator 21.0.2, SVG Export Plug-In . SVG Version: 6.00 Build 0)  -->
<svg version="1.1" id="Layer_1" xmlns="http://www.w3.org/2000/svg" xmlns:xlink="http://www.w3.org/1999/xlink" x="0px" y="0px"
	 viewBox="0 0 834.2 211.5" style="enable-background:new 0 0 834.2 211.5;" xml:space="preserve">
<style type="text/css">
	.st0{opacity:0.7;}
	.st1{fill:#FFFFFF;}
</style>
<title>Asset 1</title>
<g id="Layer_2" class="st0">
	<g id="Layer_1-2">
		<path class="st1" d="M740,49.4c7.8,0,15.1-3.7,19.8-9.9c6.6-8.8,6.6-20.8,0-29.6c-8.2-10.9-23.6-13.1-34.6-5
			c-10.9,8.2-13.1,23.6-5,34.6C724.9,45.7,732.3,49.4,740,49.4z"/>
		<path class="st1" d="M834,50.9c-0.3-0.3-0.8-0.4-1.5-0.2l-0.3,0.1c-18.5,6.8-59.4,14.2-114.3,4.4c-65.5-11.6-89-5.8-100.5-1.6
			l-0.3,0.1c-0.7,0.3-1.1,0.8-1.1,1.2s0.5,0.9,1.3,1.1h0.1c82.6,18.6,31.5,87.7-81.3,152.9c-0.2,0.1-0.4,0.2-0.6,0.3
			c-0.7,0.4-1,1-0.9,1.4s0.9,0.8,1.9,0.8h0.3c19.7-1.8,48.7-12.3,83.5-27.8l0,0c4.1-1.8,8.2-3.7,12.4-5.6
			c17.6-7.7,37.6-14.9,50.2-10.9c16.7,5.3,19.9,17.7,21.9,41.3v0.4c0.1,0.6,0.3,1.1,0.7,1.2s0.9-0.2,1.4-0.7l0.2-0.2
			c8.1-11.2,38.3-54.8,40-89.3c40.5-23.6,74.3-47.6,86.5-66.8c0.2-0.2,0.3-0.4,0.4-0.6C834.3,51.9,834.3,51.3,834,50.9z"/>
		<path class="st1" d="M439.4,63.4v7.1c-4.9-3.5-10.4-5.9-16.2-7.1c-5.8-1.2-11.8-1.2-17.6,0c-19.9,4.1-34.3,21.6-34.4,42v0.6
			c0.1,23.9,19.6,43.1,43.4,43c8.9,0,17.5-2.8,24.8-8v7h18.2V63.4H439.4z M414.4,130.8c-13.8,0-25-11.2-25-25s11.2-25,25-25
			s25,11.2,25,25S428.2,130.8,414.4,130.8C414.4,130.8,414.4,130.8,414.4,130.8L414.4,130.8z"/>
		<path class="st1" d="M212.4,63.4v7.1c-4.9-3.5-10.4-5.9-16.2-7.1c-5.8-1.2-11.8-1.2-17.6,0c-19.9,4.1-34.2,21.6-34.4,41.9v0.9
			c0.2,23.9,19.7,43,43.6,42.8c8.8-0.1,17.4-2.9,24.6-8v7h18.2V63.4H212.4z M187.4,130.8c-13.8,0-25-11.2-25-25s11.2-25,25-25
			s25,11.2,25,25C212.4,119.6,201.2,130.8,187.4,130.8C187.4,130.8,187.4,130.8,187.4,130.8L187.4,130.8z"/>
		<path class="st1" d="M68.2,63.4v7.1c-4.9-3.5-10.4-5.9-16.2-7.1c-5.8-1.2-11.8-1.2-17.6,0C11.1,68.3-3.9,91.2,1,114.6
			s27.8,38.3,51.1,33.4c5.8-1.2,11.3-3.6,16.1-7v7h18.2V63.4H68.2z M43.2,130.8c-13.8,0-25-11.2-25-25s11.2-25,25-25s25,11.2,25,25
			C68.2,119.6,57,130.8,43.2,130.8C43.2,130.8,43.2,130.8,43.2,130.8L43.2,130.8z"/>
		<path class="st1" d="M501.3,63.4c-4.8,1.2-9.3,3.7-12.9,7.1v-7.1h-18.2V148h18.2v-47.2l0,0c0-11.1,9-20.1,20.1-20.1c0,0,0,0,0,0
			h5.9V62.5h-5.9C506.1,62.5,503.7,62.8,501.3,63.4z"/>
		<path class="st1" d="M336.5,63.4c-2.6-0.6-5.2-0.9-7.8-0.9h-0.8h-0.6h-0.1c-7.5,0.4-14.7,3.2-20.5,8c-1.1,0.9-2.2,1.9-3.2,2.9
			c-1.3-1.4-2.7-2.6-4.2-3.7c-3.7-2.8-9.5-6.3-16.5-7h-0.2h-0.4H282h-0.3h-0.4h-0.9c-2.4,0-4.9,0.3-7.2,0.9
			c-4.4,1.2-8.5,3.6-11.7,6.9v-7h-18.2V148h18.2V97.8c-0.2-9.3,7.2-16.9,16.5-17.1c0.2,0,0.3,0,0.5,0c9.7,0,16.1,7.7,16.1,17.1V148
			h18.2V97.8c0-9.4,7-17.1,16.5-17.1s15.6,7.7,15.6,17.1V148h18.2V96.8C362.9,80.9,351.9,67.1,336.5,63.4z"/>
		<polygon class="st1" points="592.8,63.4 570.9,63.4 541.5,99 541.5,42.8 541.5,35.2 523.4,35.2 523.4,148 527.4,148 541.5,148 
			541.5,112.4 570.9,148 592.8,148 557.9,105.7 		"/>
		<path class="st1" d="M130.2,63.4c-4.8,1.2-9.3,3.7-12.9,7.1v-7.1H99.1V148h18.2v-45.5c0-13,8.5-21.8,21.5-21.8h4.6V62.5h-5.9
			C134.9,62.5,132.5,62.8,130.2,63.4z"/>
		<path class="st1" d="M737.7,188.1h-2.1v6h-1.8v-6h-2.1v-1.4h6L737.7,188.1L737.7,188.1z M747.7,194.1H746v-5.3l0,0l-1.9,5.3h-1.3
			l-1.9-5.3l0,0v5.3h-1.7v-7.4h2.5l1.8,4.9l1.9-4.9h2.4v7.4H747.7z"/>
	</g>
</g>
</svg>
