<?xml version="1.0" encoding="utf-8"?>
<!-- Generator: Adobe Illustrator 21.0.2, SVG Export Plug-In . SVG Version: 6.00 Build 0)  -->
<svg version="1.1" id="FINAL_x21_" xmlns="http://www.w3.org/2000/svg" xmlns:xlink="http://www.w3.org/1999/xlink" x="0px" y="0px"
	 viewBox="0 0 730 197.6" style="enable-background:new 0 0 730 197.6;" xml:space="preserve">
<style type="text/css">
	.st0{display:none;fill:#4B5151;}
	.st1{opacity:0.7;}
	.st2{fill:#FFFFFF;}
</style>
<title  id="title">Collegis Education Logo</title>
<desc  id="description">A power-button like green square sits next to the words Collegis Education</desc>
<path class="st0" d="M-238.8-419.1h1382.9v346.5H-238.8V-419.1z"/>
<g class="st1">
	<path class="st2" d="M238.3,188h19.4v6.4h-26.6v-47.8h25.5v6.4h-18.3v13.5h13.6v6.2h-13.6V188z M273.8,146.6h-10.3v47.7h10.2
		c14.5,0,21.3-7.7,21.3-24.3C295,153.6,288.6,146.6,273.8,146.6z M274.1,187.9h-3.4v-34.8h3.7c9.3,0,13.1,4.9,13.1,17
		C287.6,182.6,283.6,187.9,274.1,187.9L274.1,187.9z M323.8,180.4c0,5.8-2.5,8.4-8.2,8.4c-5.5,0-7.7-2.4-7.7-8.4v-33.7h-7.3v32.9
		c0,10.3,4.9,15.3,15.1,15.3c10.4,0,15.4-5,15.4-15.3v-32.9h-7.3V180.4L323.8,180.4z M361.3,178.1c-1.1,7.2-3.8,10.5-8.4,10.5
		c-6.2,0-8.8-5.5-8.8-18.4c0-11.9,3-17.9,8.9-17.9c4.2,0,6.8,3,8,9.5l0.1,0.5l6.8-0.6l-0.1-0.5c-1.5-10.3-6.2-15.1-14.8-15.1
		c-10.6,0-16.2,8.4-16.2,24.3c0,16.8,5.1,24.6,16.1,24.6c8.9,0,13.8-5.1,15.4-16.1l0.1-0.6l-7-0.6L361.3,178.1L361.3,178.1z
		 M394,146.6h-9.5L372,194.4h7.4l3.2-13.3h13.1l3.3,13.3h7.5L394,146.6z M384.2,174.8l5-20.5l5,20.5H384.2z M404.6,153h11.3v41.4
		h7.2V153h11.2v-6.4h-29.7V153z M441.1,146.6h7.3v47.7h-7.3V146.6z M472.1,146c-11,0-16.6,8.2-16.6,24.4c0,11.2,2.9,24.5,16.6,24.5
		c10.9,0,16.7-8.5,16.7-24.5C488.9,154.2,483.3,146,472.1,146z M472.1,188.8c-7.7,0-9.3-10-9.3-18.4c0-12.1,3.1-18.2,9.3-18.2
		c6.2,0,9.3,6.1,9.3,18.2C481.5,182.6,478.3,188.8,472.1,188.8z M518.8,146.6v30.6l-14.7-30.6h-9.2v47.8h6.7v-35.6l17.1,35.3
		l0.2,0.3h6.7v-47.8L518.8,146.6z"/>
	<g>
		<path class="st2" d="M270.5,118.2c-22.1,0-33.4-17-33.4-50.6c0-30.9,12.7-49.4,33.9-49.4c11.4,0,19.4,4.5,24.9,14.3l12.4-6.2
			C300.9,12.5,289.1,6,271.2,6c-30.3,0-48.4,23-48.4,61.5c0,41.1,16.4,62.9,47.5,62.9c21.2,0,34.7-8.6,42.5-27.1l-13.1-4.8
			C293.9,111.8,284.4,118.2,270.5,118.2z M356.7,39.5c-24.2,0-38.6,17.1-38.6,45.7c0,27.8,14.8,45.1,38.6,45.1
			c23.7,0,38.4-17.3,38.4-45.1C395.1,56.6,380.8,39.5,356.7,39.5L356.7,39.5z M356.7,120.4c-16.2,0-25.5-12.8-25.5-35.1
			c0-22.8,9.3-35.8,25.5-35.8s25.5,13.1,25.5,35.8C382.2,107.6,372.9,120.4,356.7,120.4z M404.4,8.5h12.9v121.3h-12.9V8.5z
			 M436.2,8.5h12.9v121.3h-12.9V8.5z M499.6,39.5c-23.7,0-38.4,16.5-38.4,43.2c0,14.2,3.5,26.1,10.2,34.5
			c6.8,8.6,16.5,13.1,28.1,13.1c16.4,0,28.8-6.9,36.8-20.6l-9.6-5.1c-6.1,10.5-14.4,15.4-26.1,15.4c-16.4,0-25.6-12.2-26.6-35.3
			v-1.2h63c0.1-1.7,0.1-3.1,0.1-4.2C536.9,53.7,523.7,39.5,499.6,39.5L499.6,39.5z M523.6,75.1h-49.5l0.1-0.7l0.1-0.6
			c2-16,11-24.7,25.3-24.7c15.7,0,24.4,8.8,24.6,24.9v1.1H523.6z M614.1,143.9c-8.6-3.3-19.8-3.8-29.8-4.3c-0.9,0-1.8-0.1-2.7-0.1
			c-1.5-0.1-3-0.1-4.4-0.2c-11.4-0.4-19.6-0.7-19.6-11.2c0-3.2,2.8-9.1,8.1-11.8l0.2-0.1l0.2-0.1l0.2,0.1l0.2,0.1
			c4.4,1.5,9.8,2.3,15.6,2.3c21.6,0,36.7-15.5,36.7-37.8c0-6.9-1.7-17.3-4.4-21.9l-0.3-0.5l-0.3-0.5l0.5-0.3l0.5-0.3
			c3.9-2.3,8.2-3.6,12.9-3.8V40.4c-8.7,0.4-14.9,5.6-18.6,9.9l-0.4,0.5l-0.4,0.5l-0.5-0.4l-0.5-0.4c-6.5-5.4-15.3-8.3-25.3-8.3
			c-10.3,0-19.8,4.1-26.6,11.7c-6.5,7.2-10.1,16.8-10.1,27c0,13,4.7,25,12.1,30.6l0.7,0.5l0.7,0.5l-0.7,0.5l-0.8,0.5
			c-8.7,5.6-12.6,14.1-12.6,20c0,7.4,3.9,12.4,10.9,14.3l0.5,0.1l0.5,0.1v2.2l-0.4,0.2l-0.4,0.2c-10.4,4-15.2,10.2-15.2,19.4
			c0,7.6,3.7,13.8,10.7,18.1c7.2,4.4,18,6.8,31.2,6.8c28.7,0,45.9-11.2,45.9-30.1C628.6,154.5,623.9,147.6,614.1,143.9L614.1,143.9z
			 M558.2,81.6c0-18.7,12.4-28.8,24.1-28.8c11.7,0,24.1,10.1,24.1,28.8c0,15.9-9.9,27-24.1,27C568.1,108.6,558.2,97.5,558.2,81.6z
			 M583.5,184.7c-18.4,0-29.8-6.5-29.8-17c0-4.1,2.2-14.1,22.2-17h0.1c23.1,0.6,39.4,2.1,39.4,16.2
			C615.4,177.6,602.6,184.7,583.5,184.7z M639.7,42h12.9v87.7h-12.9V42z M639.7,8.2h13.6v14.2h-13.6V8.2z M699.5,78
			c-11.1-2.9-21.6-5.7-21.6-15.4c0-8.3,6.5-13.5,16.9-13.5c9.8,0,16.5,3.4,22.1,11.2l9.2-6c-6.8-10.1-16.7-14.9-31-14.9
			c-17.7,0-29.6,9.5-29.6,23.6c0,17.6,14.6,21.6,28.7,25.4c11.8,3.2,23,6.2,23,17.4c0,9.4-7.3,14.7-20.1,14.7
			c-11.1,0-17.9-3.7-25-13.4l-9.4,6.6c8.3,11.5,18.8,16.6,34,16.6c20.2,0,33.2-9.9,33.2-25.2C730,86.1,713.8,81.8,699.5,78L699.5,78
			z"/>
	</g>
	<g>
		<path class="st2" d="M101.8,0l-1.6,0.4C77.8,5.5,59.6,21.5,50.4,44.1C40.3,69,42.6,97.6,56.3,119c14.4,22.4,36.4,34.7,61.9,34.7
			c38.2,0,70.4-23.8,79.4-61.4V0H101.8z M175.8,40l-47.7,40.8c-1.2,1-2.8,0.4-3.8-0.6c-2.6-2.7-5.1-5.4-7.7-8.1
			c-0.8-0.9-0.8-1.8-0.4-2.6c0.1-0.2,0.3-0.5,0.5-0.7c14.5-15.1,29-30.2,43.5-45.2c1.3-1.4,3-1.2,4.3,0.1c3.9,4.2,7.9,8.4,11.8,12.6
			C177.4,37.4,176.8,39.2,175.8,40L175.8,40z"/>
		<path class="st2" d="M121.4,185.7c-24,0-47.4-8-67.6-23.3C21.1,137.6,6,98,13.5,56.4C17.3,34.8,27,15.4,40.9,0H0v197.6h197.6
			v-42.4C177.2,174.4,150.4,185.7,121.4,185.7L121.4,185.7z"/>
	</g>
</g>
</svg>
