<?xml version="1.0" encoding="utf-8"?>
<!-- Generator: Adobe Illustrator 21.0.2, SVG Export Plug-In . SVG Version: 6.00 Build 0)  -->
<svg version="1.1" id="Layer_1" xmlns="http://www.w3.org/2000/svg" xmlns:xlink="http://www.w3.org/1999/xlink" x="0px" y="0px"
	 viewBox="0 0 369.9 366.9" style="enable-background:new 0 0 369.9 366.9;" xml:space="preserve">
<style type="text/css">
	.st0{opacity:0.7;}
	.st1{fill:#FFFFFF;}
</style>
<title>Asset 3</title>
<g class="st0">
	<path class="st1" d="M328.9,116.5c3.1,0.4,5.3-1.7,8-1.3c1.5,0.2,1.5-0.8,1.5-1.9c0.1-1.9,0.9-3.2,3.1-3c2.2,0,4.2,1.4,4.9,3.6
		c0.6,1.6-0.2,3.4-1.8,4c-0.2,0.1-0.4,0.1-0.6,0.2c-2.4,0.4-1.7,1.6-1.8,3.1c-0.1,3.1-1.6,5.7-4.8,6.1c-3.6,0.4-5.4-2.2-6.3-5.2
		C330.6,120.1,330.9,118,328.9,116.5z"/>
	<path class="st1" d="M354,93.9c-0.1,3.7-0.5,6.8-4.9,6.9c-3.8,0.1-7.3-2.9-7.4-6c-0.1-3.6,3.8-8,7-7.8
		C353.1,87.3,353.6,90.7,354,93.9z"/>
	<path class="st1" d="M298,362.4c-1.3-0.1-2.5-0.9-3.1-2.1c-0.8-1.6-1.8-3.3-1.9-5c-0.1-2-3-4.4,0.2-6.1c1.6-0.9,7.5,3.4,8.3,6.1
		c0.8,2.9-0.5,5.1-2.6,6.9C298.8,362.4,298.4,362.3,298,362.4z"/>
	<path class="st1" d="M328.3,34.3c1.3-0.3,2.4-0.3,2.5,1.4c0.1,1.9-6.6,8.7-8.5,8.3c-1.4-0.3-2-1.3-1.9-3
		C320.5,36.6,323.3,34.2,328.3,34.3z"/>
	<path class="st1" d="M58.6,45.4c-2.6-0.1-3.8-1.3-3.8-3.4c-0.1-2.5,1.7-3,3.7-2.9s3.7,0.8,3.5,3.2S60.1,45.2,58.6,45.4z"/>
	<path class="st1" d="M31,92.7c-1.5-0.6-4,0.7-3.9-2c0-2.3,1.9-3,3.8-3c1.9,0,3.6,1.2,3.6,3.3C34.4,93.8,32,92,31,92.7z"/>
	<path class="st1" d="M336.9,255.5l-0.2-2c1.8,0.6,3.5-2.5,4.8-0.6s0.7,4.5-1.5,6.1C337.8,259,338.9,255.9,336.9,255.5z"/>
	<path class="st1" d="M294.9,64.3l-4.5-0.2c0.4-0.8,0.7-1.5,1-2.3c0.5-1.1,0.3-3.3,2.3-2C295.1,60.8,297.6,62.1,294.9,64.3z"/>
	<path class="st1" d="M99.9,35.3l-0.8,1c-0.7,0.5-1.1,1.7-2.3,1.2c-0.9-0.7-2.8-1.2-1.7-2.7C96.8,32.6,98.4,34.3,99.9,35.3z"/>
	<path class="st1" d="M139.8,351.2c-1-0.1-1.8-0.9-1.9-1.9c-0.1-2.2,2-0.7,2.9-1.4s1.4,0.4,1.3,1.2
		C142.1,350.3,141.1,351.2,139.8,351.2z"/>
	<path class="st1" d="M25.6,95.2c-0.6,1.2-0.8,2.7-2.5,2.7c-0.6,0-1.1-0.6-1-1.2c0-0.1,0-0.2,0-0.2c0.1-1.3,1-2.5,2.3-2.9
		C24.9,93.4,25.8,94.3,25.6,95.2z"/>
	<path class="st1" d="M2.7,205.9c-2-2.6-3.2-4-2.4-6.1c0.3-0.3,0.8-0.3,1.2-0.2C2.7,201.1,2.8,203,2.7,205.9z"/>
	<path class="st1" d="M341.6,276.4c-1.8-0.1-0.8-1.8-1.4-2.6s-0.2-1.5,0.8-1.6c1.5-0.1,2.1,1,2.3,2.1S342.7,276,341.6,276.4z"/>
	<path class="st1" d="M308.8,70.8c-0.1,0.8-0.1,1.9-1.3,1.4c-0.9-0.3-2.4-0.3-2.4-1.7c0-0.8,0.9-1.2,1.8-1.3
		C308.2,69.1,308.9,69.5,308.8,70.8z"/>
	<path class="st1" d="M311.5,330c1,1.8,1.7,3,0.1,4c-0.5,0.1-0.9,0-1.3-0.4C309,332,310.7,331.3,311.5,330z"/>
	<path class="st1" d="M286.9,353.2c-1.7-0.2-0.2-1.9-1.1-2.7c-1.1-1,0.2-1.3,0.9-1.3c1.5,0,1.2,1.3,1.4,2.2S288.2,353.1,286.9,353.2
		z"/>
	<path class="st1" d="M335.8,249.2c-0.1-0.3-0.1-0.6,0-0.8c1.1,0.1,2.4-1.6,3.1,0.3c0.3,0.8,0,1.7-0.8,2.1
		C336.5,251.6,337,249,335.8,249.2z"/>
	<path class="st1" d="M94.4,316.8c0.3,0.2,1.2,0.7,1.2,0.9c-0.3,1-1.3,1.6-2.3,1.5c-0.8,0-1.3-0.4-1-1.2c0.1-0.8,0.9-1.4,1.7-1.3
		C94.1,316.7,94.3,316.8,94.4,316.8z"/>
	<path class="st1" d="M286.6,62.3l-0.3,0.2l-0.3-0.1c0.7-0.9,0.6-2.8,2.5-2c0.7,0.3,1.2,1.2,0.8,1.4
		C288.5,62.1,287.6,62.3,286.6,62.3z"/>
	<path class="st1" d="M106.6,27.5c-0.5,0.4-1.1,0.7-1.8,0.8c-1,0.1-1.3-0.9-1.3-1.6c-0.1-0.6,0.1-1.3,1-1.4S106,25.8,106.6,27.5z"/>
	<path class="st1" d="M103.4,46.9c-0.3,0-0.7,0-1-0.1C102.6,47,103,47,103.4,46.9z"/>
	<path class="st1" d="M368,171.2c-1.2-4.3-3.1-8.4,1.5-11.8c0.5-0.4,0.1-1.2-0.4-1.7c-1.7,0.9-3.5,2.7-5.1,2.4
		c-1.7-0.3-3.1-2.7-2.8-4.8c1.1-7.3-3.8-12.5-5.9-19.2c-1.8,4.5-5.3,4.2-8.4,5c-0.3-2.3,1.6-3.7,0.8-5.7c-1.5-1-2.8,2.1-4.3,0.3
		c-1.8-2.1-1.6-1.9-3.6,0.1c-0.9,0.9-0.2,4.3-3.2,2.5c-0.1-0.1-0.2-0.2-0.3-0.3c-0.5-0.4-1.2-0.2-1.5,0.3c-2.3-0.2-5.7,1.3-6.3-2.1
		c-0.9-4.8-3.8-9.8-0.5-14.3c0.5-3-4,1.2-2.7-2.3c2.3-6.6-2.3-11-4.8-15.9c-2.2-4.3-4.2-8.8-4.8-13.5c-0.3-2.2,1.1-4.7-1-6.6
		s-4.4-0.8-7.5,0.9c2-2.8,1.1-3.8-0.4-4.8c-1.7-1.1-3.9-2.6-3.8-4.4c0.3-6.1-4.5-8-8.2-10.9c-1.4-2-3-1.3-4.5-0.2c0,0,0,0-0.1,0
		c-1.5,0.5-3.1-0.4-3.6-1.9l-0.6,0.1c-0.5,0.5-0.9,1-1.1,1.6c-0.4,1.5-0.2,2.9-2.5,3.5c-2.8,0.7-1.2-1.8-2.3-2.6s-1.4-2.6-3.3-2.6
		c-0.5,0.2-0.7,0.9-1.3,0.8c0-0.3,0-0.6,0-0.8c2.8-3.6,7.2-5.5,11.7-5.1c6.4,0.3,10.9-3.4,14.5-8.1c1-1.4,1.7-3.5,0.5-5.2
		c-1.3-1.8-3.2-1.9-5.3-1c-3.3,1.5-6.6,3.1-10.1,3.8c-4.7,0.9-10.7,2.9-13.9-1.2c-5-6.6-9.6-13.5-14.6-20.2c-1.6-2.2-2.9-3.1-5.5-3
		c-5.4,0.2-7.9-2.7-6.9-8.2c0.6-3.2,1.5-6.3,1.5-9.3c-2.2-1.5-2.6,1.2-4.1,1.3c-0.3-0.7-0.6-1.5-1-2.2c-2.4-5-4.2-5.1-7.3-0.6
		c-1.6,2.3-3.7,4.5-4.5,7c-1.2,3.4-3.3,4.4-6.3,3.9c-7.6-1.1-14.6,0-20.6,5.3c-0.8,0.7-1.2-0.1-1.5-0.5c-1.6-2.8-6.4-4.4-2-9
		c2.3-2.4,0.7-5.8-2.3-7.5c-3.5-1.9-6.9-1.1-9.5,1.9c-2.2,2.6-1.7,6,1,7.4c4.1,2.1,6.3,4.4,4.7,9.1c-0.1,0.5,0.1,1,0.5,1.4
		c5,3.5,0.7,5.2-1.4,7.3c-1.4,1.4-2.8,2.9-4,4.4c-1.9,2.6-3.8,1.5-4.4-0.6c-1.1-4.3-3.9-4.5-7.3-3.9c-1.8,0.3-3.3-0.6-4.8-1.1
		c-12.4-4.3-25.2-4.1-38-3.6c-5.6,0.3-11.1,3.2-16.6-0.9c-0.9-0.7-2.6,0-3.1,1.7c-1.4,4.7-4,6.8-9.3,5.7c-2.5-0.5-5.1,1.1-5.8,4.2
		c-0.7,0.2-1.3,0.7-1.7,1.3c-0.2,1.9-1.4,3.7-0.5,5.7l3.2,2c0.5,1,0.8,2.2,1.5,2.6c0.4,0,0.7,0.1,1,0.1c-0.4,0.1-0.7,0.1-1-0.1
		c-1.3-0.1-3-0.3-4.6,0.2c-1.4,1-0.7,2,0.3,2c6.1-0.1,4.4,2.6,2.2,5.6c-1,1.5-1.3,3.4-3,4.6c-0.9-2.2-1.6-4.4-3.6-5.9
		c-1.3-0.9-2.8-1.6-4.2-1c-1.8,0.9-0.9,2.8-0.5,4c0.8,2.3,1.8,4.6,2.9,6.8c1.2,2.6,1.8,5.4-0.4,7.4c-2.5,2.3-3.5-1.2-5.1-2.2
		c-3.6-2.4-5.6-1.7-6.6,2.6c-1.1,5-5.4,8.5-11.2,9.2c-5.4,0.6-6.9-1.1-5.2-5.9c1.4-4.2-0.2-8.5-3.8-9.6s-8.3,1.5-9.5,5.3
		c-1.3,4.4,0.7,9.4,4.7,9.4c4.8-0.1,5.5,3.4,7,6.3c1.5,2.9,1.6,5.3-2.5,6.9c-4,1.5-7.6,3.9-12,1.3c-0.8,3.2,1.1,4.4,2.8,5.8
		c1.3,1.1,2.8,3.3,1.3,4.2c-3.7,2.3-5.3,7.7-10.7,7.5c-2.1-0.1-2.5,0.6-2,2.6c1.5,5.7-0.5,7.6-6.3,6.1c-4.9-1.3-9.9-2.8-15.9-0.1
		l14.3,3.9c-3,5.8-6.9,11-11.6,15.6c-1.9,1.9-2.5,4.8-5.4,6.2c-1.4,0.7,0.8,3.5,2,5c0,0,0,0,0,0c1,1,0.9,2.6-0.1,3.6
		c-1.6,1.5-1.4-0.6-2.3-1.3c-0.9-0.6-1.8-1.5-3.3-0.6l2,4c0.6,1.4,2,0.4,2.8,1.1c0.6,1.7,3.5,4.8,0.5,4.9c-4.2,0.1-2.3,3-3.4,4.2
		c-1.1,1.3,1.8,3.4-1.1,4.1c-0.6,0.2-0.7,0.6-0.3,1.1c0.5,0.7,1.4,1,2.2,0.8c2.7-0.3,1.9,1.8,1.6,3c-0.3,1.2,0.4,3.1-2.3,2.9
		c-3.7-0.3-8.6,5.8-7.6,9.4c1.7,5.7,3.8,11.3,5.7,17c0.9,2.8,2.6,5.3,2.4,9.3c-2.4-3.2-5.5-1.4-6.1-0.2c-0.8,2-0.2,4.8,0.4,7.1
		c0.3,0.9,2.6,2.1,2.8-0.1c0.5-4.1,4.9,0.1,5.6-3c1.1,1.1,1.1,2.7,1.5,4.1c0.6,2.4,1.3,4.7,1.9,7c-0.2,0.1-0.5,0.2-0.8,0.3
		c-2.5,0.3-2.4-3.1-4.7-3.1c-0.8,7.3-0.8,7.4,6.2,8c1.5,0.1,1.7,1.1,1.4,2c-0.2,0.8-0.1,2.4-2.1,1.8c-4.3-1.1-6.3,1.9-8.1,5
		c-1.3,2.1-1.1,3.6,1.8,3.4c3.7-0.2,7.1,2.5,10.8,1.1c2.4-0.9,2.9,1.9,2.8,2.4c-0.8,5.1,2.3,10.3-0.1,15.4c-0.7,1.5-1.3,3.7,0.1,4.7
		c1.8,1.2,3.2-0.9,3.9-2.1c2.5-3.9,6-1.4,8.3-0.8c3.5,0.8-1.4,2.3-0.6,4c0.3,1,0.4,2,0.4,3c1.3,7.8,5.4,14.1,10.4,20.1
		c3.5,4.4,7.8,8.4,10.1,13.7c1.7-0.6,1.3-2.2,1.9-3.3c0.2-0.5-0.2-1.8,1.3-0.9c2.9,1.8,6.9,1.8,9.4,1.6c5.4-0.5,6.4,2.3,7.6,5.9
		c1.2,3.6,3.5,5.4,7.6,4.2c2.4-0.5,4.9-0.8,7.4-0.7c1.5-0.1,3,0.2,3.7,1.9c2.3,5.2,7.2,7.6,11.5,10.8s8.9,6.4,11.2,11.2
		c2.4,4.8,4.8,5.8,8.7,2.1c0.6-0.6,1.5-1.5,1.7-0.3c0.4,3.2,2.8,1.7,4.2,2c2.3,0.4,5,0.3,6.6,1.9c4.7,5,9.6,3.1,14.7,1
		c0.2,1-1.1,2.2,0.9,3.3c3.7,2.2,6.1,1.6,9.3-3.6c0.5-0.9,0.3-3.2,2.4-1.7c0.1,0.1,0.2,0.1,0.3,0.2c0.9,0.8,1.1,2.2,0.3,3.1
		c-0.9,1.3-2.6,2.4-2.2,4.6c4.2-2.3,4.4-2.3,5.6-0.7c1.2,1.5,2.4,3.1,4.4,2.7s1.5-2.7,1.9-4.2c0.9-3.7,7.2-5.9,9.8-3.1
		c6.8,7.1,15.7,10.5,24.7,13.3c6.2,2.1,12.3,4.6,18.1,7.7c0.6-1.9-1.4-4.3,2.9-5.4c2.6-0.7,6.2,0.1,8.2-1.9c3.1-3.1,5-0.8,6.3,1.3
		c3.3,5.2,6.9,6,12.4,3.2c3.7-1.9,8.8-3.9,11.3,2.5c0,0,0,0,0,0c0.2,0.6,0.9,1,1.6,0.8c3.6-0.5,8.3,0.9,9.7-4
		c1.3-4.5-2.7-5.8-5.6-7.5c-0.1-0.1-0.3-0.1-0.5-0.2c-2.7-0.8-2.2-2.4-0.3-3.3c2.5-1.2,3.6-2.7,3-5.4c-0.3-0.8,0-1.7,0.7-2.2
		c5.3-3.2,10-7.2,15.2-10.5c1.6-1.1,3.6-1.2,3.6-4c1.6,1,2.7,1.8,3.9,2.4c0.8,0.4,2.1,0.1,1.8-0.8c-1.8-4.5,1.9-2.9,3.7-3.5
		c2.3-0.8,4.4-2.2,6.1-4.1c5.8-6.1,7.6-14.6,12.6-21.2c1.6-2,2-4.9,4.6-6.4c4.3-2.4,4.6-6.9,0.6-9.8c-0.7-0.5-2.1-1.5-0.7-1.8
		c3.1-0.6,1.7-2.7,1.8-4.2c0.2-2.7-0.3-5.9,1.6-7.7c4.3-4,3.4-8.7,2.8-13.6c0-1.5-0.3-2.9-0.9-4.3c-0.3-0.6-0.7-1.1-1.2-1.5
		c-1.4-1.2-2.3-2.5-1-4.3c0.1,0,0.2-0.1,0.4-0.3c0.1-0.2,0-0.4-0.4-0.5c-2.5-1.2-5.5,2.5-7.9-1c2.7-1.7,5.4-3.5,8.3-5.2
		c1.9-1.1,2.8-2.2,2.2-4.8c-0.5-2.1-0.5-5.1,3.3-4.9c0.8,0,1.8-0.3,1.8-1.3c-0.1-5.9,4.8-8.2,8.4-10.9
		C363.4,211.4,374.3,192.9,368,171.2z M67.8,204.3c-8.1,0.6-16.3,0.3-24.5,0.5c-2.8,0.1-3.3-1.1-3.3-3.5c0.1-7.3,0-14.6,0-22
		c0-7.3,0.1-14.7,0-22c0-2.3,0.2-3.8,3.1-3.7c8.3,0.3,16.6-0.4,25,0.5c14.1,1.6,22.9,11.4,22.8,25.5
		C90.8,193.2,81.7,203.2,67.8,204.3z M108.3,204.9c-11.9,0.2-11.9,0.3-11.9-11.4s0.1-23.3-0.1-35c0-3.5,0.5-5,4.5-4.9
		c11,0.2,11,0,11,11.2l0,14.5c0,7.3-0.1,14.7,0.1,22C112,204.2,111.1,204.8,108.3,204.9z M168.8,186.7c0.1,9.9-2,12.9-11.2,16.6
		c-16.2,6.6-34.3-0.8-39-15.9c-3.8-12.5,1.3-25.3,12.4-31.1c12.2-6.3,26.9-3.7,34.5,6c2.2,2.8,2.5,4.7-1.4,6c-1.4,0.5-2.8,1.2-4,2
		c-3,1.9-5.3,2.7-8.2-0.9c-3.2-3.9-9.2-3.7-13.7-0.6s-6.3,9.5-4.3,15.2c1.8,5.2,7,8.5,12.5,8c0.7-0.1,1.3-0.2,2-0.4
		c1.7-0.5,4.6-0.5,4.5-2.3c-0.2-2.5-3-1.3-4.5-1.1c-3.4,0.2-4.6-0.7-4.5-4.3c0.2-9.4,0-9.4,9.3-9.4l4.2,0c3.2,0.3,8.3-1.7,10.8,0.8
		C170.5,177.7,168.7,182.8,168.8,186.7z M175.6,158.1c-0.1-3.3,0.6-4.6,4.3-4.6c11.1,0.1,11.1-0.1,11.1,11.1v14.5
		c0,7.3-0.1,14.6,0,21.9c0.1,2.7-0.5,3.7-3.5,3.8c-11.9,0.3-11.9,0.4-11.9-11.3S175.8,169.9,175.6,158.1z M191.2,262.5
		c0,2.5-0.7,3.4-3.4,3.5c-12.1,0.5-12.1,0.6-12.1-11.6c0-12,0.1-23.9-0.1-35.9c0-2.7,0.7-3.6,3.5-3.7c11.9-0.2,11.9-0.3,11.9,11.7
		l0,14C191.2,247.9,191.2,255.2,191.2,262.5z M196.6,160.1c0-7.4-0.9-6.4,6.3-6.4c5-0.1,10,0,15,0c6,0,12,0.1,18,0
		c2.6-0.1,3.8,0.8,3.4,3.4c0,0.2,0,0.3,0,0.5c0.3,9.7,0.3,9.9-9.3,9.7c-3.6-0.1-4.3,1.1-4.3,4.5c0.2,9.8,0,19.6,0.1,29.5
		c0.1,2.8-0.7,3.7-3.6,3.7c-12.1,0.3-12.1,0.4-12.1-11.7c0-7.2-0.3-14.3,0.1-21.5c0.2-4-1.2-5-4.7-4.4c-0.5,0-1,0-1.5,0
		C196.6,167.3,196.5,167.3,196.6,160.1z M244.8,266.1c-7.9,0.9-13.5-1.3-17.4-8.6c-3.1-5.7-7.6-10.7-12.5-17.3
		c0,8.3-0.1,15.2,0.1,22.1c0,2.7-0.5,3.7-3.5,3.8c-11.9,0.2-11.9,0.4-11.9-11.4c0-12,0.1-23.9-0.1-35.9c0-3.2,1-3.5,3.9-3.9
		c8.7-1.2,14.8,1.4,19.1,9.4c2.5,4.8,6.4,8.9,10.5,14.6c0-7.8,0.1-14,0-20.3c0-2.5,0.5-3.5,3.3-3.6c12.5-0.6,12.5-0.7,12.5,11.8
		c0,11.8-0.1,23.6,0.1,35.4C248.7,265.2,247.7,265.7,244.8,266.1z M253.2,201.1c0,0.1,0,0.3,0,0.4c-0.4,2.7-1.8,3.5-4.5,3.3
		c-4.4-0.3-8.9-0.2-13.4-0.3c0.2-4.6,2.6-8.4,4-12.6c3.8-10.8,8.1-21.4,11.7-32.3c1.6-4.8,3.8-6.9,8.8-6c1.2,0.1,2.4,0.1,3.5,0
		c9.4,0,9.4,0,12.7,8.8c4.7,12.8,9.3,25.6,14.2,38.3c1.3,3.4,0.8,4.4-2.9,4.1c-2.8-0.2-5.7-0.2-8.5,0c-3.1,0.2-5.6-0.1-6-3.9
		c-0.2-2-1.8-2.1-3.3-2.1c-4.3,0-8.7,0.1-13-0.1C255,198.5,253.5,199.5,253.2,201.1z M289,266c-2.3,0.1-3.2-1.2-4.2-2.8
		c-3.1-4.9-6.3-9.8-9.4-14.8c-4.7,2.9-3.3,7.5-3,11.4c0.4,5.1-1.2,6.5-6.3,6.3c-9.3-0.5-9.3-0.1-9.3-9.5c0-12.3,0.1-24.6-0.1-36.9
		c0-3.5,0.4-4.9,4.5-4.8c11,0.3,11,0,11,11.2c-0.1,2.2,0.2,4.5,0.9,6.6c2.9-4.2,6.1-8.2,8.7-12.6c2.4-4.1,5.3-5.8,10.1-5.2
		c3.8,0.5,7.6,0.1,12.5,0.1c-5.8,7.2-10.9,13.8-16.4,20.1c-2.3,2.6-2.3,4.3-0.2,7.1c5.9,7.4,11.3,15.2,17.6,23.8
		C299.2,266,294.1,265.9,289,266z M329.2,195.6c-0.2,9.1,0,9.1-9.1,9.1c-7.1,0-14.3-0.1-21.4,0.1c-3.2,0.1-4.4-0.7-4.3-4.1
		c0.3-7.1,0.1-14.3,0.1-21.4c0-7.3,0.1-14.6,0-21.9c-0.1-2.8,0.8-3.7,3.6-3.8c11.8-0.3,11.8-0.4,11.8,11.3c0,7.3,0.3,14.6-0.1,21.9
		c-0.2,4,1.2,4.8,4.7,4.5s7,0.2,10.5-0.1C328.6,190.8,329.2,192.3,329.2,195.6z"/>
	<path class="st1" d="M60.5,191.2c-4.3,1.1-5.2-1.2-4.9-5.3c0.3-5,0.3-10,0-15c-0.2-3.3,1.1-4.1,4-3.7c1.2,0.1,2.3,0.1,3.5,0
		c7.6,0.2,11.9,4.4,12,11.7c0,7.1-4.5,11.8-11.7,12.3C62.6,191.3,61.8,191.2,60.5,191.2z"/>
	<path class="st1" d="M263.3,169.7c1.7,5.6,3.2,10.4,4.7,15.5h-9.6C259.6,179.8,261.2,174.7,263.3,169.7z"/>
</g>
</svg>
