<?xml version="1.0" encoding="utf-8"?>
<!-- Generator: Adobe Illustrator 21.0.2, SVG Export Plug-In . SVG Version: 6.00 Build 0)  -->
<svg version="1.1" id="Layer_1" xmlns="http://www.w3.org/2000/svg" xmlns:xlink="http://www.w3.org/1999/xlink" x="0px" y="0px"
	 viewBox="0 0 382 122" style="enable-background:new 0 0 382 122;" xml:space="preserve">
<style type="text/css">
	.st0{opacity:0.7;}
	.st1{clip-path:url(#SVGID_2_);}
	.st2{clip-path:url(#SVGID_4_);}
	.st3{fill:#FFFFFF;}
	.st4{clip-path:url(#SVGID_6_);}
	.st5{clip-path:url(#SVGID_8_);}
</style>
<title>Asset 1</title>
<g class="st0">
	<defs>
		<path id="SVGID_1_" class="st0" d="M90,48.6h26.9v6.7H97.3v11h18.5v7H97.3v17.3H90V48.6z M121.8,62h7v4.6c0.7-1.6,1.8-3,3.3-4
			c1.4-1,3.1-1.4,4.8-1.2h1.2l1.2,0.3v7c-0.6-0.2-1.2-0.3-1.8-0.3h-1.8c-1.4,0-2.7,0.3-3.9,0.9c-0.9,0.5-1.7,1.2-2.4,2.1
			c-0.6,0.7-0.9,1.5-0.9,2.4c0,0.6-0.3,1.2-0.3,1.8v15.3h-7V62H121.8z M143.3,76.3c-0.1-4,1.5-8,4.5-10.7c1.4-1.3,3-2.3,4.8-3
			c3.9-1.5,8.2-1.5,12.1,0c1.8,0.6,3.4,1.7,4.8,3c1.4,1.3,2.5,2.9,3.3,4.6c1.5,4,1.5,8.5,0,12.5c-1.5,3.6-4.5,6.4-8.2,7.6
			c-3.9,1.5-8.2,1.5-12.1,0c-1.8-0.6-3.4-1.7-4.8-3c-1.4-1.3-2.5-2.9-3.3-4.6C143.7,80.6,143.3,78.5,143.3,76.3z M150.2,76.3
			c0.1,1.2,0.3,2.3,0.6,3.4c0.4,1,0.9,1.9,1.5,2.7c3,3.3,8.1,3.6,11.4,0.6c0.1-0.1,0.2-0.2,0.4-0.3c0.2,0,0.3-0.1,0.3-0.3
			c0,0,0,0,0,0c0.6-0.8,1.1-1.7,1.5-2.7c0.6-2.1,0.6-4.3,0-6.4c-0.4-1-0.9-1.9-1.5-2.7c-3-3.3-8.1-3.6-11.4-0.6
			c-0.1,0.1-0.2,0.2-0.4,0.3c-0.2,0-0.3,0.1-0.3,0.3c0,0,0,0,0,0c-0.6,0.8-1.1,1.7-1.5,2.7C150.4,74.3,150.2,75.3,150.2,76.3z
			 M178.3,62h6.7v4.6c0.7-1.5,1.7-2.7,3-3.7c1.5-1.2,3.5-1.8,5.4-1.5c1.6,0,3.3,0.3,4.8,0.9c1.2,0.6,2.3,1.4,3.3,2.4
			c0.9,0.9,1.5,2.1,1.8,3.4c0.4,1.4,0.6,2.8,0.6,4.3v18h-7v-17c-0.1-0.9-0.3-1.8-0.6-2.7c-0.3-0.8-0.8-1.5-1.5-2.1
			c-0.9-0.6-1.9-0.9-3-0.9c-1,0.1-2,0.3-3,0.6c-0.8,0.3-1.5,0.8-2.1,1.5c-0.6,0.7-1,1.5-1.2,2.4c-0.2,0.9-0.3,1.8-0.3,2.7v15.5h-7
			V62H178.3z M208,68.1V62h5.7v-8.2h7.3V62h7.9v6.1H221v12.5c0,1.2,0.3,2.3,0.9,3.3c0.9,0.9,1.8,1.5,3,1.2c0.7,0,1.4-0.1,2.1-0.3
			c0.6-0.1,1.3-0.3,1.8-0.6v6.1c-0.9,0.3-1.8,0.5-2.7,0.6c-0.9,0-1.8,0.3-2.7,0.3c-1.5-0.1-3-0.3-4.5-0.6c-1.1-0.2-2.1-0.9-2.7-1.8
			c-0.7-0.9-1.2-1.9-1.5-3c-0.2-1.4-0.3-2.9-0.3-4.3V68.4H208C208,68.4,208,68.1,208,68.1z M235.2,62h6.7v4.3
			c0.9-1.6,2.4-2.9,4.2-3.6c1.7-0.8,3.5-1.2,5.4-1.2c2-0.1,3.9,0.3,5.7,1.2c1.8,0.6,3.4,1.8,4.5,3.3c1.2,1.4,2.1,3.1,2.7,4.9
			c0.6,1.9,0.9,3.8,0.9,5.8c0,2-0.3,3.9-0.9,5.8c-0.5,1.7-1.5,3.3-2.7,4.6c-1.2,1.3-2.6,2.3-4.2,3c-1.7,0.8-3.5,1.2-5.4,1.2
			c-1.2,0-2.4-0.1-3.6-0.3l-2.7-0.9c-0.8-0.4-1.5-0.9-2.1-1.5c-0.6-0.4-1-0.9-1.2-1.5v17h-7.3L235.2,62L235.2,62z M258.5,76.3
			c-0.1-1.1-0.3-2.2-0.6-3.3c-0.4-1-0.9-1.9-1.5-2.7c-3.1-3.3-8.3-3.5-11.7-0.4c0,0-0.1,0.1-0.1,0.1c-0.2,0-0.3,0.1-0.3,0.3
			c0,0,0,0,0,0c-0.6,0.8-1.1,1.7-1.5,2.7c-0.6,2.1-0.6,4.3,0,6.4c0.4,1,0.9,1.9,1.5,2.7c3,3.3,8.2,3.6,11.6,0.5
			c0.1-0.1,0.2-0.2,0.2-0.2c0.2,0,0.3-0.1,0.3-0.3c0,0,0,0,0,0c0.6-0.8,1.1-1.7,1.5-2.7C258.4,78.4,258.6,77.4,258.5,76.3z
			 M270.3,76.3c-0.1-4,1.5-8,4.5-10.7c1.4-1.3,3-2.3,4.8-3c3.9-1.5,8.2-1.5,12.1,0c1.8,0.6,3.4,1.7,4.8,3c1.4,1.3,2.5,2.9,3.3,4.6
			c1.5,4,1.5,8.5,0,12.5c-1.5,3.6-4.5,6.4-8.2,7.6c-3.9,1.5-8.2,1.5-12.1,0c-3.7-1.4-6.7-4.2-8.2-7.9
			C270.8,80.4,270.4,78.4,270.3,76.3z M277.6,76.3c0.1,1.2,0.3,2.3,0.6,3.4c0.4,1,0.9,1.9,1.5,2.7c3,3.3,8.1,3.6,11.4,0.6
			c0.1-0.1,0.2-0.2,0.4-0.3c0.2,0,0.3-0.1,0.3-0.3c0,0,0,0,0,0c0.6-0.8,1.1-1.7,1.5-2.7c0.6-2.1,0.6-4.3,0-6.4
			c-0.4-1-0.9-1.9-1.5-2.7c-3-3.3-8.1-3.6-11.4-0.6c-0.1,0.1-0.2,0.2-0.4,0.3c-0.2,0-0.3,0.1-0.3,0.3c0,0,0,0,0,0
			c-0.6,0.8-1.1,1.7-1.5,2.7C277.7,74.2,277.5,75.3,277.6,76.3L277.6,76.3z M304.2,52.2c0.1-1.1,0.5-2.1,1.2-3
			c1.9-1.6,4.7-1.6,6.6,0c1.7,1.4,1.9,4,0.4,5.6c0,0.1-0.1,0.1-0.1,0.2l-0.3,0.3c-1.9,1.6-4.7,1.6-6.6,0
			C304.6,54.4,304.2,53.3,304.2,52.2L304.2,52.2z M305.1,90.3h7V62h-7V90.3z M319.3,62h6.7v4.6c0.7-1.5,1.7-2.7,3-3.7
			c1.5-1.2,3.5-1.8,5.4-1.5c1.6,0,3.3,0.3,4.8,0.9c1.2,0.6,2.3,1.4,3.3,2.4c1,1,1.6,2.3,1.8,3.7c0.4,1.4,0.6,2.8,0.6,4.3v18h-7V73.2
			c-0.1-0.9-0.3-1.8-0.6-2.7c-0.3-0.8-0.8-1.5-1.5-2.1c-0.9-0.6-1.9-0.9-3-0.9c-1,0.1-2,0.3-3,0.6c-0.8,0.3-1.5,0.8-2.1,1.5
			c-0.6,0.7-1,1.5-1.2,2.4c-0.2,0.9-0.3,1.8-0.3,2.7v15.5h-7V62H319.3z M347.7,68.1V62h5.7v-8.2h7V62h7.9v6.1h-7.8v12.5
			c0,1.2,0.3,2.3,0.9,3.3c0.9,0.9,2.1,1.5,3,1.2c0.7,0,1.4-0.1,2.1-0.3c0.6-0.1,1.3-0.3,1.8-0.6v6.1c-0.9,0.3-1.8,0.5-2.7,0.6
			c-0.9,0-1.8,0.3-2.7,0.3c-1.5-0.1-3-0.3-4.5-0.6c-1.1-0.2-2.1-0.9-2.7-1.8c-0.6-0.9-1.1-1.9-1.5-3c-0.2-1.4-0.3-2.9-0.3-4.3V68.4
			h-6.1L347.7,68.1L347.7,68.1z M370.1,56.8c0-0.6,0-0.9,0.3-1.2s0.3-0.9,0.6-1.2c0.3-0.4,0.7-0.6,1.2-0.6c0.9-0.3,1.8-0.3,2.7,0
			c0.3,0.3,0.9,0.3,1.2,0.6c0.4,0.3,0.6,0.7,0.6,1.2c0.3,0.9,0.3,1.8,0,2.7c-0.3,0.3-0.3,0.9-0.6,1.2c-0.3,0.4-0.7,0.6-1.2,0.6
			c-0.9,0.3-1.8,0.3-2.7,0c-0.3-0.3-0.9-0.3-1.2-0.6c-0.4-0.3-0.6-0.7-0.6-1.2C370.2,57.8,370.1,57.3,370.1,56.8L370.1,56.8z
			 M370.7,56.8c0,0.3,0.1,0.7,0.3,0.9c0,0.3,0.3,0.6,0.6,0.9s0.6,0.3,0.9,0.6c0.6,0.3,1.2,0.3,1.8,0c0.3,0,0.6-0.3,0.9-0.6
			c0.6-0.8,0.8-1.8,0.6-2.7c0-0.3-0.3-0.6-0.6-0.9s-0.6-0.3-0.9-0.6c-0.6-0.3-1.2-0.3-1.8,0c-0.3,0-0.6,0.3-0.9,0.6
			C371.1,55.5,370.7,56.1,370.7,56.8L370.7,56.8z M371.9,55h2.4l0.3,0.3v0.9c0,0.2-0.1,0.3-0.3,0.3c0,0,0,0,0,0l-0.3,0.3h-0.3
			l0.9,1.5h-0.9l-0.9-1.5h-0.3v1.5h-0.3L371.9,55z M372.9,56.3h0.9v-0.6h-0.9V56.3z"/>
	</defs>
	<use xlink:href="#SVGID_1_"  style="overflow:visible;fill:#FFFFFF;"/>
	<clipPath id="SVGID_2_">
		<use xlink:href="#SVGID_1_"  style="overflow:visible;"/>
	</clipPath>
	<g class="st1">
		<g>
			<defs>
				<rect id="SVGID_3_" x="5" y="5" width="372" height="112"/>
			</defs>
			<use xlink:href="#SVGID_3_"  style="overflow:visible;fill:#FFFFFF;"/>
			<clipPath id="SVGID_4_">
				<use xlink:href="#SVGID_3_"  style="overflow:visible;"/>
			</clipPath>
			<g class="st2">
				<rect x="85" y="43" class="st3" width="297" height="66"/>
			</g>
		</g>
	</g>
</g>
<g class="st0">
	<defs>
		<path id="SVGID_5_" class="st0" d="M50,77.6c10.9-5.5,15.8-18.5,10.3-29.5S41.8,32.3,30.8,37.8S15,56.3,20.5,67.3
			c2,4.2,5.3,7.6,9.4,9.7v31.9l7,7c1.8,1.5,4.9,1.5,6.4-0.3l0.6-0.6l6.7-10.6l-6.1-5.2l6.1-5.2l-6.1-5.2l5.8-5.8v-5.5L50,77.6
			L50,77.6z M40.6,50.2c4,0,7.3,3.3,7.3,7.3s-3.3,7.3-7.3,7.3s-7.3-3.3-7.3-7.3l0,0c-0.1-4,3.1-7.2,7.1-7.3
			C40.5,50.2,40.5,50.2,40.6,50.2z M77,20.2L66.7,30.8c-14.6-13.4-37.1-13.4-51.3,0L5,20.5C14.4,10.5,27.5,4.9,41.2,5
			C54.7,5,67.6,10.5,77,20.2z"/>
	</defs>
	<use xlink:href="#SVGID_5_"  style="overflow:visible;fill:#FFFFFF;"/>
	<clipPath id="SVGID_6_">
		<use xlink:href="#SVGID_5_"  style="overflow:visible;"/>
	</clipPath>
	<g class="st4">
		<g>
			<defs>
				<rect id="SVGID_7_" x="5" y="5" width="372" height="112"/>
			</defs>
			<use xlink:href="#SVGID_7_"  style="overflow:visible;fill:#FFFFFF;"/>
			<clipPath id="SVGID_8_">
				<use xlink:href="#SVGID_7_"  style="overflow:visible;"/>
			</clipPath>
			<g class="st5">
				<rect y="0" class="st3" width="82" height="122"/>
			</g>
		</g>
	</g>
</g>
</svg>
