<?xml version="1.0" encoding="utf-8"?>
<!-- Generator: Adobe Illustrator 21.0.2, SVG Export Plug-In . SVG Version: 6.00 Build 0)  -->
<svg version="1.1" id="Layer_1" xmlns="http://www.w3.org/2000/svg" xmlns:xlink="http://www.w3.org/1999/xlink" x="0px" y="0px"
	 viewBox="0 0 708 123.6" style="enable-background:new 0 0 708 123.6;" xml:space="preserve">
<style type="text/css">
	.st0{opacity:0.7;}
	.st1{fill:#FFFFFF;}
</style>
<title>Asset 1</title>
<g class="st0">
	<path class="st1" d="M392.5,2.1c-0.2,0.3-0.3,0.3-0.5,0H392.5z"/>
	<path class="st1" d="M506,70.1c0.8-6,1.5-11.7,2.2-17.3c1.1-8.4,2.2-16.9,3.3-25.3c1-7.8,2-15.5,2.9-23.3c0.2-1.2,0.5-1.7,1.8-1.6
		c1.9,0.1,3.8,0.1,5.8,0c0.8,0,1,0.2,0.8,1c-1,7.6-2,15.1-3,22.7c-1,7.7-2,15.4-3,23.2c-1.1,8.3-2.2,16.6-3.3,25
		c-0.7,5.3-1.4,10.7-2.1,16.1c-0.5-0.3-0.7-0.7-1-1.1c-8.7-12.2-17.3-24.3-26-36.5c-0.6-0.9-0.9-0.9-1.6,0
		c-9.2,12.2-18.4,24.4-27.7,36.6c-0.2,0.4-0.5,0.7-0.9,0.9c-0.3-2.3-0.6-4.6-0.9-6.9l-3-24.7c-1-8.2-2-16.3-3-24.5s-2-16.3-3-24.5
		c-0.3-2.1-0.5-4.2-0.8-6.3c-0.1-0.7,0.1-0.9,0.8-0.9c2.2,0,4.3,0,6.5,0c0.8,0,1,0.3,1,0.9c0.6,4.8,1.1,9.6,1.7,14.4
		c0.9,7.6,1.8,15.2,2.7,22.7l2.8,23c0.2,1.9,0.5,3.9,0.7,5.8c0.5-0.1,0.6-0.5,0.9-0.8c7.5-9.6,15.1-19.3,22.6-28.9
		c0.6-0.8,0.9-0.9,1.5,0c6.7,9.7,13.4,19.4,20.2,29.1L506,70.1z"/>
	<path class="st1" d="M22.5,69.7l4.4-5.7c6.3-8.1,12.7-16.2,19-24.3c0.6-0.8,0.9-0.9,1.5,0c6.7,9.7,13.4,19.3,20.1,28.9
		c0.3,0.4,0.6,0.8,1,1.4c0.4-3.4,0.8-6.5,1.3-9.6c1.1-8.4,2.1-16.7,3.2-25.1c1-7.8,2-15.6,3-23.4c0.4-2.8,0.8-5.7,1.1-8.6
		c0.1-0.7,0.3-0.8,1-0.8c2.1,0,4.2,0.1,6.2,0c0.9,0,1.2,0.2,1,1.1c-0.6,4.5-1.2,9-1.8,13.5c-1,7.7-2,15.4-3,23.2
		c-1.1,8.3-2.2,16.6-3.2,24.9l-3,23.3c-0.1,0.6-0.2,1.2-0.3,2.1c-9.3-13-18.4-25.8-27.7-38.8L16.9,90.7c-0.3-2.6-0.6-5-0.9-7.3
		l-3.3-26.9c-1-8.8-2.1-17.6-3.2-26.4c-1-8.2-2-16.3-3-24.5C6.1,2.6,6,2.6,9,2.6c1.5,0,3,0,4.6,0c0.7,0,0.9,0.2,1,0.9
		c1,8.8,2.1,17.6,3.2,26.4c1.2,9.6,2.3,19.1,3.5,28.7C21.6,62.2,22.1,65.8,22.5,69.7z"/>
	<path class="st1" d="M100.9,46.7c0-14.2,0-28.5,0-42.7c0-1.1,0.2-1.5,1.4-1.4c1.9,0.1,3.8,0.1,5.8,0c0.8,0,1.1,0.2,1.1,1.1
		c0,4.1,0,8.2,0,12.4c0,8.3,0,16.6,0,24.8c0,1,0.2,1.4,1.3,1.4c11.7-0.1,23.3-0.1,35,0c1,0,1.3-0.2,1.3-1.2c0-12.4,0-24.7-0.1-37.1
		c0-1.1,0.3-1.4,1.4-1.4c1.9,0.1,3.8,0.1,5.6,0c1,0,1.2,0.3,1.2,1.2c0,13.4,0,26.9,0,40.3c0,15.1,0,30.2,0,45.3c0,1-0.3,1.3-1.3,1.2
		c-1.9-0.1-3.8-0.1-5.8,0c-0.9,0-1.2-0.2-1.2-1.2c0-7.8,0-15.5,0-23.3c0-4.9,0-9.8,0-14.6c0-0.9-0.3-1.1-1.1-1.1
		c-11.8,0-23.6,0-35.4,0c-1,0-1.1,0.3-1.1,1.2c0,12.5,0,25.1,0,37.7c0,1.1-0.3,1.4-1.4,1.4c-1.8-0.1-3.6-0.1-5.4,0
		c-1.1,0.1-1.4-0.2-1.4-1.4C100.9,75.1,100.9,60.9,100.9,46.7z"/>
	<path class="st1" d="M170.1,46.6c0-14.2,0-28.5,0-42.7c0-1,0.2-1.4,1.3-1.3c11.8,0,23.6,0,35.4,0c1,0,1.3,0.3,1.2,1.3
		c-0.1,2-0.1,4,0,6c0,0.9-0.2,1.1-1.1,1.1c-9.1,0-18.2,0-27.4,0c-0.9,0-1.3,0.1-1.3,1.2c0,9.7,0,19.4,0,29.1c0,1,0.2,1.2,1.2,1.2
		c9.1,0,18.2,0,27.2,0c1.1,0,1.4,0.3,1.3,1.4c-0.1,1.9-0.1,3.8,0,5.6c0.1,1.2-0.4,1.3-1.4,1.3c-9,0-18,0-27,0
		c-1.1,0-1.4,0.3-1.4,1.4c0,9.7,0,19.4,0,29.1c0,1,0.3,1.2,1.3,1.2c9.1,0,18.2,0,27.2-0.1c1.1,0,1.3,0.3,1.3,1.3c-0.1,2-0.1,4,0,6
		c0,0.7-0.1,1-0.9,1c-12,0-24,0-36,0c-1.1,0-1-0.5-1-1.2C170.1,75.2,170.1,60.9,170.1,46.6z"/>
	<path class="st1" d="M290.1,46.6c0-14.2,0-28.5,0-42.7c0-1.1,0.3-1.3,1.3-1.3c11.8,0,23.6,0,35.4,0c0.9,0,1.2,0.2,1.2,1.2
		c-0.1,2-0.1,4.1,0,6.1c0,1-0.4,1.1-1.2,1.1c-9.1,0-18.1,0-27.2-0.1c-1.1,0-1.4,0.3-1.4,1.4c0,9.6,0,19.3,0,28.9
		c0,1,0.2,1.3,1.2,1.3c9.1,0,18.2,0,27.4,0c1,0,1.2,0.3,1.2,1.2c-0.1,2-0.1,4.1,0,6.1c0,0.9-0.2,1-1.1,1c-9.1,0-18.2,0-27.4,0
		c-1,0-1.4,0.2-1.3,1.3c0,9.7,0,19.4,0,29.1c0,1,0.2,1.3,1.3,1.3c9.1-0.1,18.2,0,27.2-0.1c1,0,1.3,0.2,1.2,1.2c-0.1,2.1,0,4.2,0,6.2
		c0,0.6-0.2,0.8-0.8,0.8c-12.1,0-24.2,0-36.2,0c-1,0-0.8-0.6-0.8-1.2L290.1,46.6z"/>
	<path class="st1" d="M663.8,46.6c0-14.2,0-28.5,0-42.7c0-1.1,0.3-1.3,1.3-1.3c11.8,0,23.6,0,35.4,0c0.9,0,1.2,0.2,1.2,1.2
		c-0.1,2-0.1,4.1,0,6.1c0,1-0.3,1.1-1.2,1.1c-9,0-18.1,0-27.1-0.1c-1.2,0-1.5,0.3-1.5,1.5c0.1,9.6,0.1,19.1,0,28.7
		c0,1,0.2,1.4,1.3,1.4c9.1-0.1,18.2,0,27.2-0.1c1,0,1.2,0.3,1.2,1.2c-0.1,2-0.1,4.1,0,6.1c0,0.9-0.3,1-1.1,1c-9.1,0-18.2,0-27.4,0
		c-1,0-1.3,0.2-1.3,1.3c0.1,9.8,0.1,19.5,0,29.3c0,0.9,0.2,1.2,1.2,1.2c9.1,0,18.2,0,27.3-0.1c1,0,1.3,0.2,1.2,1.2
		c-0.1,2,0,4.1,0,6.1c0,0.6-0.1,0.9-0.8,0.9c-12.1,0-24.2,0-36.2,0c-1,0-0.8-0.6-0.8-1.2L663.8,46.6z"/>
	<path class="st1" d="M505.9,111.3c-1.2,3-2.3,6.1-3.5,9.2c-0.2,0.4-0.2,0.9-0.9,0.9s-0.8-0.5-0.9-0.9c-1.2-3-2.3-6.1-3.6-9.3
		c-0.2,0.5-0.3,1.1-0.2,1.7c0,2.5,0,5,0,7.6c0,0.5,0.1,0.9-0.7,0.9s-0.6-0.5-0.6-1c0-3.4,0-6.8,0-10.2c0-0.4-0.3-1,0.4-1
		s1.6-0.5,2,0.7c1,2.9,2.2,5.7,3.3,8.6c0.1,0.2,0,0.4,0.4,0.5c0.7-1.7,1.3-3.4,2-5c0.5-1.2,1-2.4,1.4-3.7c0.3-1.3,1.2-1.1,2.1-1.1
		c0.4,0,0.4,0.3,0.4,0.6c0,3.7,0,7.4,0,11c0,0.6-0.3,0.6-0.8,0.6s-0.7-0.2-0.7-0.7c0-2.9,0-5.8,0-8.6
		C506.1,111.7,506.4,111.3,505.9,111.3z"/>
	<path class="st1" d="M368.6,111.3c-1.2,3-2.3,6.1-3.5,9.2c-0.2,0.4-0.2,0.9-0.9,0.9s-0.7-0.5-0.9-0.9c-1.2-3-2.3-6.1-3.6-9.3
		c-0.2,0.5-0.3,1.1-0.2,1.7c0,2.5,0,5,0,7.6c0,0.5,0.1,0.9-0.7,0.9s-0.6-0.5-0.6-1c0-3.4,0-6.8,0-10.2c0-0.4-0.3-1,0.4-1
		s1.6-0.5,2,0.7c1,2.9,2.2,5.7,3.3,8.6c0.1,0.2,0,0.4,0.4,0.5c0.7-1.7,1.3-3.4,2-5.2c0.5-1.2,1-2.4,1.3-3.6c0.3-1.3,1.2-1.1,2.1-1.1
		c0.4,0,0.4,0.3,0.4,0.6c0,3.7,0,7.4,0,11c0,0.6-0.3,0.6-0.8,0.6s-0.7-0.2-0.7-0.7c0-2.9,0-5.8,0-8.6
		C368.8,111.7,369.1,111.3,368.6,111.3z"/>
	<path class="st1" d="M129.8,111.2c0,3.3,0,6.3,0,9.3c0,0.4,0.2,0.9-0.6,0.9s-0.7-0.4-0.7-0.9c0-3.4,0-6.7,0-10.1
		c0-0.4-0.4-1.1,0.4-1.2c0.7-0.2,1.4,0.1,1.7,0.7c1.6,2.7,3.4,5.3,5.1,7.9l0.9,1.3c0.2-0.5,0.2-1.1,0.1-1.7c0-2.5,0-5,0-7.4
		c0-0.5-0.1-1,0.7-0.9s0.6,0.5,0.6,0.9c0,3.4,0,6.9,0,10.3c0,0.3,0.3,0.9-0.3,1s-1.1,0.2-1.6-0.5c-1.6-2.5-3.2-5-4.9-7.6
		L129.8,111.2z"/>
	<path class="st1" d="M667,119.2c0-3.2,0-6.1,0-9c0-0.4-0.3-1.1,0.6-1.1s0.7,0.7,0.7,1.2c0,3.2,0,6.5,0,9.7c0,0.4,0.4,1.1-0.3,1.3
		c-0.7,0.2-1.5-0.1-1.8-0.8c-1.7-2.8-3.6-5.6-5.4-8.4c-0.2-0.3-0.3-0.5-0.7-1v9.3c0,0.4,0.1,0.9-0.6,0.8c-0.4,0-0.6-0.1-0.6-0.6
		c0-3.7,0-7.4,0-11c0-0.3,0-0.6,0.4-0.6s1.1-0.2,1.5,0.5c0.8,1.4,1.8,2.8,2.7,4.1L667,119.2z"/>
	<path class="st1" d="M417.7,119.2c0-3.2,0-6.1,0-9.1c0-0.4-0.3-1,0.6-1s0.7,0.6,0.7,1c0,3.4,0,6.7,0,10.1c0,0.4,0.3,1-0.3,1.1
		c-0.6,0.2-1.3,0-1.6-0.6c-1.9-3-3.8-5.9-5.7-8.9c-0.1-0.2-0.2-0.3-0.5-0.7v9c0,0.3,0,0.6,0,0.8c-0.1,0.4-0.5,0.2-0.8,0.3
		c-0.5,0-0.4-0.4-0.4-0.7c0-3.6,0-7.2,0-10.8c0-0.3-0.1-0.7,0.4-0.7s1.1-0.2,1.6,0.5c1.7,2.7,3.5,5.4,5.3,8.2L417.7,119.2z"/>
	<path class="st1" d="M112.3,117.9c0,3.2,0,3.2-3.2,3.6c-4.2,0.4-6.7-1.8-6.9-6c-0.2-3.8,2.3-6.4,6.2-6.5c1,0,1.9,0.1,2.8,0.4
		c0.3,0.1,1,0,0.7,0.8c-0.2,0.5-0.4,0.8-1.1,0.5c-1-0.4-2-0.5-3.1-0.4c-1.9,0.1-3.5,1.4-3.9,3.2c-0.3,1.2-0.3,2.5,0,3.7
		c0.6,2.1,2.2,3.2,4.8,3.1c2.2-0.1,2.2-0.1,2.2-2.3c0-0.3,0-0.6,0-0.8c0.1-0.8-0.2-1-1-0.9c-0.4,0-0.8,0-1.2,0s-0.6-0.2-0.6-0.7
		s0.2-0.6,0.7-0.6c0.9,0,1.8,0,2.8,0c0.5,0,0.7,0.2,0.7,0.7C112.2,116.4,112.3,117.2,112.3,117.9z"/>
	<path class="st1" d="M694.2,118.1c0,3.1,0,3.1-3,3.4c-2.5,0.3-4.8-0.1-6.1-2.5c-1.4-2.4-1.3-5.3,0.3-7.6c1.5-2.2,6-3.1,8.3-1.8
		c0.2,0.1,0.4,0.2,0.3,0.5c-0.2,0.5-0.3,1-1.1,0.7c-0.6-0.3-1.3-0.4-2-0.4c-2-0.1-3.7,0.4-4.6,2.3c-0.9,2-0.7,4.4,0.5,6.3
		c1.1,1.3,4.4,2,5.8,1.2c0.2-0.1,0.3-0.3,0.3-0.6v-1.1c0-2,0-2-2-2.1c-0.5,0-0.7-0.1-0.7-0.7s0.3-0.7,0.8-0.6h0.1
		C694.2,114.9,694.2,114.9,694.2,118.1z"/>
	<path class="st1" d="M580.5,121.2c-0.9,0.4-2-0.1-2.4-1c-0.9-1.3-1.9-2.6-2.9-3.8c-0.2-0.3-0.4-1-0.9-0.8s-1.2,0.7-1.1,1.5
		c0.1,1.1,0,2.2,0,3.4c0,0.6-0.2,0.8-0.8,0.8s-0.6-0.4-0.6-0.8c0-3.5,0-7,0-10.5c0-0.4-0.1-0.8,0.6-0.8s0.8,0.3,0.8,0.9
		c0,1.6,0,3.3,0,4.9c2.6-1.7,3.6-5.1,6.7-6l0.3,0.3c-1.3,1.4-2.6,2.9-3.9,4.3c-0.5,0.3-0.7,1.1-0.4,1.6c0.1,0.1,0.1,0.2,0.2,0.3
		C577.6,117.3,579,119.2,580.5,121.2z"/>
	<path class="st1" d="M386.8,115.1c0-1.7,0-3.4,0-5.2c0-0.6,0.1-0.8,0.8-0.8c1.7,0,3.4,0,5.1,0c0.5,0,0.8,0.1,0.8,0.7
		s-0.4,0.6-0.8,0.6c-1.2,0-2.5,0-3.7,0c-0.6,0-0.8,0.1-0.9,0.8c-0.1,3.2-0.2,3.2,3,3.2c0.5,0,1,0,1.4,0s0.6,0.2,0.6,0.6
		s-0.1,0.6-0.6,0.6c-1.2,0-2.5,0-3.7,0c-0.6,0-0.8,0.2-0.7,0.7c0.1,1,0.1,2,0,3c0,0.6,0.2,0.8,0.8,0.8c1.2,0,2.5,0,3.7,0
		c0.5,0,0.8,0,0.8,0.7s-0.3,0.6-0.8,0.6c-1.8,0-3.5,0-5.3,0c-0.6,0-0.7-0.2-0.7-0.7C386.8,118.7,386.8,116.9,386.8,115.1z"/>
	<path class="st1" d="M263.7,115.2c0-1.8,0-3.5,0-5.3c0-0.6,0.1-0.8,0.8-0.8c1.7,0,3.4,0,5.1,0c0.5,0,0.8,0,0.8,0.7
		s-0.4,0.6-0.8,0.6c-1.2,0-2.4,0-3.6,0c-0.7,0-1,0.1-1,0.9c0,3.1-0.1,3.1,3,3.1c0.4,0,0.9,0,1.3,0s0.8,0,0.8,0.6s-0.3,0.6-0.7,0.6
		c-1.2,0-2.4,0-3.6,0c-0.6,0-0.8,0.2-0.7,0.7c0,1,0,2,0,3c0,0.6,0.2,0.8,0.8,0.8c1.2,0,2.5,0,3.7,0c0.5,0,0.8,0,0.8,0.7
		s-0.3,0.6-0.8,0.6c-1.8,0-3.5,0-5.3,0c-0.6,0-0.8-0.2-0.7-0.7C263.7,118.8,263.7,117,263.7,115.2z"/>
	<path class="st1" d="M595.6,115.2c0-1.7,0-3.4,0-5.2c0-0.7,0.1-1,0.9-1c1.7,0.1,3.3,0,5,0c0.5,0,0.8,0,0.8,0.7s-0.3,0.6-0.8,0.6
		c-1.2,0-2.5,0-3.7,0c-0.7,0-0.9,0.2-0.9,0.9c-0.1,3.1-0.1,3.1,3,3.1h1.3c0.4,0,0.8,0,0.8,0.6s-0.3,0.6-0.7,0.6c-1.2,0-2.4,0-3.6,0
		c-0.6,0-0.8,0.1-0.8,0.7c0,1,0,2,0,3c0,0.6,0.2,0.8,0.8,0.8c1.3,0,2.6,0,3.8,0c0.5,0,0.7,0.1,0.7,0.7s-0.3,0.6-0.7,0.6
		c-1.7,0-3.4,0-5.2,0c-0.7,0-0.9-0.2-0.9-0.8C595.6,118.7,595.6,117,595.6,115.2z"/>
	<path class="st1" d="M217.6,115.2c0-1.8,0-3.5,0-5.3c0-0.6,0.1-0.8,0.8-0.8c1.7,0,3.4,0,5.1,0c0.5,0,0.8,0,0.8,0.7
		s-0.4,0.6-0.8,0.6c-1.2,0-2.4,0-3.6,0c-0.7,0-1,0.1-1,0.9c0,3.1-0.1,3.1,3,3.1c0.5,0,1,0,1.4,0s0.6,0.2,0.6,0.6s-0.1,0.6-0.6,0.6
		c-1.2,0-2.5,0-3.7,0c-0.6,0-0.8,0.2-0.7,0.7c0.1,1,0.1,2,0,3c0,0.6,0.2,0.8,0.8,0.8c1.2,0,2.5,0,3.7,0c0.5,0,0.8,0,0.8,0.7
		s-0.3,0.6-0.8,0.6c-1.8,0-3.5,0-5.3,0c-0.6,0-0.7-0.2-0.7-0.7C217.6,118.8,217.6,117,217.6,115.2z"/>
	<path class="st1" d="M39.5,115.3c0-1.8,0-3.5,0-5.3c0-0.7,0.2-0.9,0.9-0.9c1.7,0,3.4,0,5.2,0c0.5,0,0.7,0.1,0.7,0.6
		s-0.3,0.7-0.7,0.6c-1.1,0-2.2,0-3.2,0c-0.2,0-0.4,0-0.6,0c-1.7,0.4-0.4,1.8-0.7,2.6c-0.1,0.4-0.4,1.3,0.7,1.3s2.3,0,3.5,0
		c0.5,0,0.8,0,0.8,0.7s-0.4,0.6-0.8,0.6c-1.2,0-2.3,0-3.5,0c-0.6,0-0.8,0.2-0.8,0.8c0.1,1.2-0.4,2.7,0.2,3.5s2.2,0.2,3.3,0.2
		c0.4,0,0.8,0,1.2,0c0.5,0,0.7,0.1,0.6,0.6s0,0.7-0.6,0.7c-1.9,0-3.8,0-5.6,0c-0.7,0-0.5-0.4-0.5-0.8L39.5,115.3z"/>
	<path class="st1" d="M243.5,119.2c1-2.8,1.9-5.5,2.9-8.2c0.1-0.3,0.2-0.5,0.3-0.8c0.2-1,0.8-1.4,1.9-1c-1.2,3.4-2.4,6.8-3.6,10.2
		c-0.1,0.4-0.3,0.8-0.4,1.2s-0.4,0.7-1,0.6c-0.4,0.1-0.8-0.2-0.9-0.6c-1.3-3.8-2.7-7.7-4.1-11.5c1.1-0.4,1.5,0,1.9,1
		C241.3,113.2,242.4,116.1,243.5,119.2z"/>
	<path class="st1" d="M61.7,119.7c1.3,0.5,2.7,0.6,4.1,0.5c1-0.2,1.8-0.6,1.9-1.7c0.1-0.9-0.4-1.9-1.3-2.2c-0.9-0.4-1.8-0.7-2.7-1.2
		c-1.4-0.6-2.2-2.1-1.9-3.6c0.3-1.4,1.6-2.5,3.1-2.4c1-0.1,2.1,0,3.1,0.3c0.4,0.1,1,0,0.7,0.9s-0.6,0.6-1.1,0.4
		c-0.9-0.3-1.9-0.4-2.8-0.3c-0.8,0-1.4,0.6-1.6,1.4c-0.2,0.8,0.1,1.6,0.8,2.1c0.8,0.5,1.7,0.8,2.6,1.2c2,0.9,2.7,2,2.4,3.9
		c-0.2,1.4-1.4,2.3-3.3,2.7c-1,0.1-2.1,0.1-3.1-0.1C61.7,121.2,61.3,120.7,61.7,119.7z"/>
	<path class="st1" d="M437.9,115.8c0-1.5,0-3,0-4.4c0-0.9-0.3-1.1-1.1-1s-1.4,0-2.2,0c-0.4,0-0.7-0.1-0.7-0.6s0.2-0.7,0.7-0.7
		c2.6,0,5.1,0,7.7,0c0.5,0,0.7,0.1,0.7,0.7s-0.3,0.6-0.8,0.6c-0.7,0-1.5,0-2.2,0s-1,0.2-1,1c0,3,0,6,0,9c0,0.5,0.2,1-0.7,1
		s-0.6-0.6-0.6-1.1C437.8,118.8,437.9,117.3,437.9,115.8z"/>
	<path class="st1" d="M620.5,115.8c0-1.5,0-3,0-4.6c0-0.7-0.2-0.9-0.9-0.9s-1.6,0-2.4,0c-0.5,0-0.6-0.2-0.6-0.6s0.2-0.6,0.6-0.6
		c2.6,0,5.3,0,7.9,0c0.5,0,0.6,0.3,0.6,0.7s-0.2,0.6-0.6,0.6c-0.8,0-1.5,0-2.3,0s-1,0.2-1,1c0,3,0,6,0,9c0,0.5,0.1,1-0.7,1
		s-0.6-0.6-0.6-1C620.5,118.8,620.5,117.3,620.5,115.8z"/>
	<path class="st1" d="M287.6,114.7c0,1.5,0,3,0,4.6c0,0.6,0.2,0.8,0.8,0.8c1.3,0,2.5,0,3.8,0c0.4,0,0.8,0,0.8,0.6s-0.2,0.7-0.7,0.7
		c-1.8,0-3.6,0-5.4,0c-0.6,0-0.7-0.3-0.7-0.8c0-3.6,0-7.1,0-10.7c0-0.5,0.1-0.8,0.7-0.8s0.7,0.3,0.7,0.8
		C287.6,111.5,287.6,113.1,287.6,114.7z"/>
	<path class="st1" d="M640.9,115.1v-5c0-0.4-0.2-1,0.7-0.9s0.8,0.3,0.8,0.9c0,3.5,0,7,0,10.6c0,0.5-0.1,0.8-0.7,0.8
		s-0.7-0.4-0.7-0.9C640.9,118.7,640.9,116.9,640.9,115.1z"/>
	<path class="st1" d="M86.3,115.3c0,1.7,0,3.4,0,5.2c0,0.6,0,0.9-0.8,0.9s-0.6-0.3-0.6-0.8c0-3.5,0-7,0-10.6c0-0.5,0-0.9,0.7-0.9
		s0.7,0.5,0.7,0.9C86.3,111.8,86.3,113.6,86.3,115.3z"/>
	<path class="st1" d="M163.1,115.1c0-1.3,0.6-2,1.8-2s1.8,0.8,1.8,2c0.1,1-0.6,2-1.6,2.1c-0.1,0-0.1,0-0.2,0
		C163.7,117.2,163,116.4,163.1,115.1z"/>
	<path class="st1" d="M466.6,115.2c0-1.4,0.5-2.1,1.7-2.1s1.9,0.7,1.9,2c0.1,1-0.6,1.9-1.6,2.1c-0.1,0-0.1,0-0.2,0
		C467.3,117.2,466.7,116.5,466.6,115.2z"/>
	<path class="st1" d="M368.6,111.3l0.2-0.6c0.2,0.4,0.3,0.9,0,1.3C368.7,111.8,368.9,111.4,368.6,111.3z"/>
	<path class="st1" d="M505.9,111.3c0.1-0.2,0.2-0.4,0.2-0.6c0.2,0.4,0.3,0.9,0,1.3C506,111.8,506.1,111.4,505.9,111.3z"/>
	<path class="st1" d="M432.4,37.9C429.5,20.7,415.3,6.3,398.2,3c-1.8-0.2-3.5-0.5-5.2-0.9l-0.5,0c0,0,0,0,0,0
		c-0.1,0.1-0.3,0.1-0.4,0h-7.9c-0.1,0.3-0.4,0.2-0.6,0.2c-15.3,1.8-26.8,9.5-34.3,22.9c-5.3,9.4-6.3,19.7-4.4,30.2
		c1.5,9.1,5.8,17.4,12.4,23.8c10.2,9.9,22.6,13.6,36.6,12.2c11.7-1,22.4-6.9,29.5-16.2C432.1,64.2,434.7,51.5,432.4,37.9z
		 M417.8,69.9c-8.4,10.7-19.5,15.6-33.1,14.3c-9.5-0.8-18.3-5.4-24.4-12.8c-4.3-5-6.4-11.1-7.5-17.5c-1.3-8-0.8-15.8,2.4-23.3
		c4.7-11,13.3-17.4,24.6-20.2c14.9-3.7,30.5,2.2,39.2,14.9c4.4,6.3,6,13.5,6,21.9C424.9,54.9,423.2,63.1,417.8,69.9z"/>
	<path class="st1" d="M250.9,50.5l2.4-0.4c10.9-2.3,20.9-11.3,20.9-24.5c0-6.7-2.4-12.5-7.8-16.7c-4.9-3.7-10.8-5.8-16.9-6.1
		c-8.1-0.4-16.3-0.1-24.5-0.2c-0.9,0-0.9,0.4-0.9,1c0,28.7,0,57.4,0,86.1c0,0.9,0.3,1,1,1c2,0,4.1-0.1,6.1,0c0.8,0,1-0.2,1-1.1
		c0-4.4,0-8.7,0-13c0-8.2,0-16.5,0-24.7c0-1,0.3-1.2,1.2-1.2c1.2,0.1,2.5,0,3.7,0c1.5,0,3.1-0.4,4.4,0.2c1.3,0.6,1.7,2.4,2.5,3.7
		c7.2,11.7,14.4,23.4,21.6,35.1c0.3,0.4,0.4,0.9,1,0.9h8.9L250.9,50.5z M233.6,42.6c-0.9,0-1.1-0.2-1.1-1.1c0-4.9,0-9.8,0-14.7
		c0-4.9,0-9.8,0-14.7c0-0.8,0.1-1.1,1-1.1c4.5,0.1,9,0,13.4,0.1c3.9,0.1,7.7,1.1,11.1,2.9c6.5,3.4,9.8,11.3,7.3,17.7
		c-2,5.2-6.1,8.1-11.2,9.8c-2.6,0.8-5.3,1.2-8,1.2C241.9,42.6,237.7,42.6,233.6,42.6z"/>
	<path class="st1" d="M624.6,50.5c0.9-0.2,1.7-0.3,2.5-0.5c11-2.3,20.9-11.5,20.9-24.5c0-6.7-2.4-12.5-7.7-16.7
		c-4.9-3.7-10.7-5.9-16.8-6.1c-8-0.5-16.1-0.1-24.1-0.2c-1.2,0-1.3,0.4-1.3,1.4c0,28.5,0,56.9,0,85.4c0,0.2,0,0.3,0,0.5
		c-0.1,0.6,0.2,0.8,0.8,0.8c1.9,0,3.9,0,5.6,0s1.7,0,1.7-1.7c0-12.3,0-24.5,0-36.8c0-1,0.2-1.4,1.3-1.4c2.3,0.1,4.6,0.1,6.8,0
		c0.8-0.1,1.5,0.3,1.9,1c7.2,11.7,14.3,23.3,21.5,35c0.8,1.3,1.3,2.9,2.4,3.6s2.9,0.2,4.5,0.2s3.1,0,4.8,0
		C641,77.2,632.9,63.9,624.6,50.5z M607,42.6c-0.8,0-1-0.3-1-1c0.1-4.9,0.1-9.9,0.1-14.8c0-4.9,0-9.8,0-14.8c0-0.8,0.2-1.1,1-1.1
		c4.4,0,8.9,0,13.3,0c3.9,0.1,7.8,1.1,11.3,2.9c6.5,3.4,9.7,11.1,7.3,17.6c-1.9,5-5.8,7.9-10.6,9.7c-2.7,1-5.5,1.4-8.3,1.4
		C615.7,42.6,611.4,42.6,607,42.6z"/>
	<path class="st1" d="M554.9,2.7c-0.2,0.5-0.3,0.8-0.3,1.1c-6.4,20.3-12.9,40.6-19.3,60.8c-2.6,8.3-5.2,16.6-7.9,24.8
		c-0.3,1-0.2,1.3,0.9,1.2c2-0.1,3.9-0.1,5.9,0c0,0,0.1,0,0.1,0c0.7,0.1,1.4-0.4,1.5-1.2c1.8-6.2,3.7-12.3,5.5-18.4
		c0.2-0.8,0.5-1.1,1.4-1.1c8.1,0,16.1,0,24.1,0c0.9,0,1.2,0.3,1.4,1.1c1.9,6.2,3.8,12.4,5.7,18.6c0.1,0.5,0.1,1,0.8,1
		c2.5,0,5,0,7.7,0C573.2,61.3,564.1,32.1,554.9,2.7z M564.4,61.8c-6.4,0-12.8,0-19.2,0c-0.6,0-1,0-0.7-0.8
		c3.4-11,6.8-22.1,10.2-33.2c5.1-16.6,0-0.1,0.2-0.2l4.1,13.2c2,6.6,4.1,13.3,6.2,19.9C565.4,61.5,565.4,61.8,564.4,61.8z"/>
	<path class="st1" d="M23.3,113.2c-0.4-2.1-2.1-3.6-4.2-3.9c-1.5-0.2-2.9-0.2-4.4-0.2c-0.7,0-0.9,0.2-0.9,0.9c0,1.8,0,3.5,0,5.3
		c0,1.8,0,3.5,0,5.3c0,0.3-0.2,0.8,0.4,0.8c2,0,4,0.3,6-0.5C22.9,119.7,24.1,116.5,23.3,113.2z M21.5,117.7
		c-0.8,1.9-2.5,2.4-4.3,2.4s-2,0-2-1.9l0-3c0-1.4,0-2.7,0-4.1c0-0.7,0.2-1,0.9-0.9c0.2,0,0.5,0,0.7,0
		C21.2,110.3,23.3,113.7,21.5,117.7z"/>
	<path class="st1" d="M201.3,113.2c-0.4-2.1-2.1-3.6-4.2-3.9c-1.5-0.2-2.9-0.2-4.4-0.2c-0.7,0-0.9,0.2-0.9,0.9c0,1.8,0,3.5,0,5.3
		c0,1.8,0,3.5,0,5.3c0,0.3-0.2,0.8,0.4,0.8c2,0,4.1,0.3,6-0.5C200.9,119.7,202.2,116.5,201.3,113.2z M193.8,120.1
		c-0.6-0.1-0.4-0.5-0.5-0.8c0-1.4,0-2.7,0-4.1c0-1.2,0.1-2.5,0-3.7c-0.1-1.2,0.3-1.4,1.3-1.3c0.4,0,0.7,0,1.1,0
		c2.8,0.2,4.2,1.6,4.4,4.4C200.3,118.6,197.7,120.8,193.8,120.1z"/>
	<path class="st1" d="M313.3,109c-2.9,0-4.9,1.5-5.5,4.3c-0.3,1.3-0.3,2.7,0,4c0.4,1.9,1.8,3.4,3.7,4c2.9,0.9,6-0.6,6.9-3.5
		c0.2-0.7,0.3-1.4,0.4-2.1C318.9,111.5,316.9,109,313.3,109z M317.1,117.3c-0.3,1.8-2,3.1-3.8,2.9c-1.9,0.1-3.5-1.2-3.8-3
		c-0.4-1.4-0.4-2.8,0-4.1c0.4-1.8,2-3,3.8-2.9c1.8-0.2,3.5,1.1,3.8,2.9C317.4,114.5,317.4,116,317.1,117.3z"/>
	<path class="st1" d="M556.3,121c-0.8-1.4-1.7-2.8-2.5-4.2c-0.4-0.6-0.6-1,0.3-1.4c1.3-0.7,1.9-2.2,1.5-3.6
		c-0.2-1.4-1.3-2.4-2.7-2.5c-1.4-0.2-2.8-0.2-4.2-0.2c-0.6,0-0.8,0.2-0.8,0.8c0,3.6,0,7.1,0,10.7c0,0.6,0.1,0.8,0.7,0.8
		s0.7-0.3,0.7-0.8c0-0.8,0-1.7,0-2.5c0-1.9,0-1.8,1.8-1.8c0.5,0,0.9,0.2,1.1,0.7c0.6,1.1,1.4,2.3,1.8,3.2c0.5,1,1,1.5,2.2,1.1
		C556.4,121.1,556.4,121.1,556.3,121z M552,115c-2.6,0.4-2.6,0.4-2.6-2.3c0-2.6,0-2.6,2.6-2.3c1.6,0.2,2.2,0.9,2.2,2.3
		S553.5,114.8,552,115z"/>
	<path class="st1" d="M527.8,109c-0.4,0-0.7,0-0.8,0.5s-0.4,1-0.6,1.6c-1.4,3.4-2.7,6.7-4,10.1c1.4,0.1,1.4,0.1,1.8-1l0.3-0.9
		c0.7-1.9,0.7-1.9,2.7-1.9c2.9,0,2.9,0,3.9,2.8c0.3,0.9,0.7,1.4,1.9,1c-1.5-3.9-3-7.7-4.5-11.6C528.5,109.2,528.2,109,527.8,109z
		 M528.9,116.2c-3.2,0.2-3.2,0.2-2.1-2.8c0.3-0.8,0.6-1.6,0.9-2.5c0.6,1.6,1.1,3.1,1.7,4.5C529.7,116,529.6,116.1,528.9,116.2z"/>
	<path class="st1" d="M342.5,112.1c-0.2-1.4-1.3-2.6-2.8-2.8c-1.3-0.2-2.7-0.2-4.1-0.2c-0.6,0-0.8,0.2-0.8,0.8c0,1.8,0,3.5,0,5.3
		c0,1.8,0.1,3.6,0,5.4c0,0.6,0.1,0.8,0.7,0.8c0.6,0,0.7-0.3,0.7-0.8c0-1.1,0-2.2,0-3.2c0-0.6,0.2-0.8,0.8-0.8
		c1.2,0.1,2.4-0.1,3.5-0.5C342.1,115.2,342.9,113.6,342.5,112.1z M339.4,115.2c-0.1,0-0.1,0-0.2,0c-2.6,0.6-2.9,0.4-2.9-2.4
		c0-0.2-0.1-0.4,0-0.5c0.3-0.6-0.8-1.9,0.7-2c2.5-0.2,3.8,0.5,4,2C341.4,113.6,340.6,114.9,339.4,115.2z"/>
</g>
</svg>
